<svg xmlns="http://www.w3.org/2000/svg" width="23.499" height="22.449" viewBox="0 0 23.499 22.449">
  <g id="ログアウト_サインアウトのアイコン素材_4" data-name="ログアウト・サインアウトのアイコン素材 4" transform="translate(0 -11.444)">
    <path id="パス_42" data-name="パス 42" d="M257.1,60.03v.007h3.819V65.1h1.655V58.389h0v-.007H257.1V60.03Z" transform="translate(-245.301 -44.784)" fill="#fff"/>
    <path id="パス_43" data-name="パス 43" d="M262.575,307.2v-.007H260.92v5.065H257.1V313.9h0v.008h5.474V307.2Z" transform="translate(-245.301 -282.172)" fill="#fff"/>
    <path id="パス_44" data-name="パス 44" d="M324.534,188.746l-3.885-2.942a.271.271,0,0,0-.168-.057.283.283,0,0,0-.284.284v1.253a.285.285,0,0,1-.284.284h-4a.281.281,0,0,0-.281.281v2.244a.281.281,0,0,0,.281.281h4a.285.285,0,0,1,.284.284v1.253a.283.283,0,0,0,.284.284.271.271,0,0,0,.168-.057l3.885-2.942A.284.284,0,0,0,324.534,188.746Z" transform="translate(-301.147 -166.304)" fill="#fff"/>
    <path id="パス_45" data-name="パス 45" d="M9.393,11.444a1.353,1.353,0,0,0-.343.05L1.759,13.6l-.473.137L.728,13.9A1.009,1.009,0,0,0,0,14.868v15.6a1.009,1.009,0,0,0,.728.972l.558.161.473.137,7.291,2.1a1.26,1.26,0,0,0,.343.05,1.229,1.229,0,0,0,1.225-1.23V12.674A1.229,1.229,0,0,0,9.393,11.444Zm-2.072,12.2V21.69a.231.231,0,0,1,.232-.232h.769a.229.229,0,0,1,.229.232v1.958a.228.228,0,0,1-.229.229H7.553A.23.23,0,0,1,7.321,23.649Z" fill="#fff"/>
  </g>
</svg>
