<svg xmlns="http://www.w3.org/2000/svg" width="20" height="16.273" viewBox="0 0 20 16.273">
  <g id="イメージ画像のアイコン素材_その3" data-name="イメージ画像のアイコン素材 その3" transform="translate(0 -47.702)">
    <path id="パス_23" data-name="パス 23" d="M99.146,243.175a4.724,4.724,0,0,0-2.542-.821,5.359,5.359,0,0,0-2.335.588,5.256,5.256,0,0,1-2.285.577,3.175,3.175,0,0,1-2.193-1.129,3.315,3.315,0,0,0-2.277-1.162h-.062v5.753h13.168v-3.269h-.062A2.9,2.9,0,0,1,99.146,243.175Z" transform="translate(-84.037 -185.966)" fill="#fff"/>
    <path id="パス_24" data-name="パス 24" d="M242.369,127.74a2.126,2.126,0,0,0,2.087-1.722l.037-.192-.141.135a1.4,1.4,0,0,1-.975.391,1.413,1.413,0,0,1-.58-2.7l.178-.079-.191-.038a2.125,2.125,0,1,0-.414,4.209Z" transform="translate(-230.859 -72.829)" fill="#fff"/>
    <path id="パス_25" data-name="パス 25" d="M0,47.7V63.975H20V47.7ZM1.988,61.988V49.69H18.012v12.3Z" fill="#fff"/>
  </g>
</svg>
