<svg xmlns="http://www.w3.org/2000/svg" width="20" height="12.338" viewBox="0 0 20 12.338">
  <g id="人物アイコン_チーム" data-name="人物アイコン　チーム" transform="translate(0.001 -98.078)">
    <path id="パス_35" data-name="パス 35" d="M5.763,159.44c0-.031-.013-.06-.013-.091v-.267a1.125,1.125,0,0,1,.062-.371,7.107,7.107,0,0,0,.979-1.935,6.109,6.109,0,0,1-.657-2.526,5.646,5.646,0,0,1,.037-.608,2.355,2.355,0,0,0-1.724-.736,2.615,2.615,0,0,0-2.5,2.881,5.932,5.932,0,0,0,1.141,2.925,1.157,1.157,0,0,1,.061.371v.267a.851.851,0,0,1-.5.774l-1.812.74a1.424,1.424,0,0,0-.8,1.036L0,162.3a.746.746,0,0,0,.744.8H3.707l.121-1.561.008-.042a2.554,2.554,0,0,1,1.445-1.862Z" transform="translate(0 -52.686)" fill="#fff"/>
    <path id="パス_36" data-name="パス 36" d="M344.875,161.9a1.422,1.422,0,0,0-.8-1.036l-1.813-.74a.85.85,0,0,1-.5-.774v-.267a1.125,1.125,0,0,1,.062-.371,5.934,5.934,0,0,0,1.141-2.925,2.615,2.615,0,0,0-2.506-2.881,2.355,2.355,0,0,0-1.724.737,5.46,5.46,0,0,1,.037.607,6.118,6.118,0,0,1-.656,2.526,7.089,7.089,0,0,0,.98,1.936,1.158,1.158,0,0,1,.062.371v.267c0,.031-.01.06-.013.091l.449.183a2.569,2.569,0,0,1,1.478,1.874l.007.043.121,1.561h2.963a.746.746,0,0,0,.743-.8Z" transform="translate(-324.91 -52.686)" fill="#fff"/>
    <path id="パス_37" data-name="パス 37" d="M126.147,107.708l-2.194-.9a1.031,1.031,0,0,1-.6-.936v-.323a1.358,1.358,0,0,1,.075-.449,7.177,7.177,0,0,0,1.379-3.539c0-2.122-1.357-3.486-3.031-3.486s-3.031,1.364-3.031,3.486a7.174,7.174,0,0,0,1.381,3.539,1.39,1.39,0,0,1,.075.449v.323a1.033,1.033,0,0,1-.6.936l-2.194.9a1.717,1.717,0,0,0-.973,1.254l-.113,1.453h10.912l-.112-1.453A1.722,1.722,0,0,0,126.147,107.708Z" transform="translate(-111.778)" fill="#fff"/>
  </g>
</svg>
