<svg xmlns="http://www.w3.org/2000/svg" width="20" height="17.604" viewBox="0 0 20 17.604">
  <g id="千鳥マークのアイコン" transform="translate(0 -30.662)">
    <path id="パス_39" data-name="パス 39" d="M17.943,32.972c-4.03-4.65-8.267-.93-9.61-.413C3.306,31.051,1.2,33.535.1,35.944c-.184.4-.1.4.233.369,1.837-.19,3.66,2.55,3.561,5.339-.1,2.894,1.757,6.51,5.063,6.614.31-.723-.336-3.524,1.344-3.617,1.86-.1,3.876.079,5.27-2.067a5.04,5.04,0,0,0,.1-5.58C14.12,34.316,17.633,33.8,17.943,32.972ZM3.89,35.84a.9.9,0,1,1,.9-.9A.9.9,0,0,1,3.89,35.84Zm10.747,6.192a3.412,3.412,0,0,1-4.065,1.1c2.756-.275,4.306-2.6,3.893-5.408A3.579,3.579,0,0,1,14.637,42.031Z" transform="translate(0)" fill="#fff"/>
    <path id="パス_40" data-name="パス 40" d="M436.441,226.486c-.724.62-1.55.62-1.344.551s.448-.379.654-.654.345-.413.173-.586-.31,0-.793.551a1.826,1.826,0,0,1-1.358.485,5.148,5.148,0,0,1-.02.945,2.91,2.91,0,0,0,2.55-.535C437.027,226.727,436.884,226.105,436.441,226.486Z" transform="translate(-416.81 -187.451)" fill="#fff"/>
    <path id="パス_41" data-name="パス 41" d="M342.146,386.872c-.947-.1-1.516-.7-1.324-.6a1.957,1.957,0,0,0,.925.025c.342-.04.537-.034.544-.278s-.214-.225-.945-.2a1.675,1.675,0,0,1-1.08-.454,4.77,4.77,0,0,1-.961.36,2.954,2.954,0,0,0,2.2,1.56C342.373,387.463,342.727,386.932,342.146,386.872Z" transform="translate(-326.051 -340.856)" fill="#fff"/>
  </g>
</svg>
