<svg xmlns="http://www.w3.org/2000/svg" width="20" height="18.937" viewBox="0 0 20 18.937">
  <g id="拡声器のアイコンその4" transform="translate(0 -79.25)">
    <path id="パス_31" data-name="パス 31" d="M65.624,321.494a1.782,1.782,0,0,1-.711.8,1.61,1.61,0,0,1-.384.165l-.434-1.6h-3.08l1.074,5.424a.707.707,0,0,0,.694.57h2.01a.708.708,0,0,0,.684-.892l-.752-2.776c.058-.016.116-.034.175-.056a2.437,2.437,0,0,0,1.118-.841,2.986,2.986,0,0,0,.513-1.176c-.237-.045-.484-.086-.739-.122A2.463,2.463,0,0,1,65.624,321.494Z" transform="translate(-57.746 -228.667)" fill="#fff"/>
    <path id="パス_32" data-name="パス 32" d="M103.634,79.25c-.566,0-1.477.965-1.871,1.358-.342.342-3.033,3.019-9.858,3.019v7.984c6.825,0,9.516,2.678,9.858,3.02.393.393,1.3,1.358,1.871,1.358a1.024,1.024,0,0,0,1.024-1.024V80.274A1.024,1.024,0,0,0,103.634,79.25Z" transform="translate(-86.983)" fill="#fff"/>
    <path id="パス_33" data-name="パス 33" d="M3.992,160.969a3.992,3.992,0,1,0,0,7.984Z" transform="translate(0 -77.341)" fill="#fff"/>
    <path id="パス_34" data-name="パス 34" d="M345.375,207.516v3a1.5,1.5,0,1,0,0-3Z" transform="translate(-326.873 -121.395)" fill="#fff"/>
  </g>
</svg>
