<svg xmlns="http://www.w3.org/2000/svg" width="20" height="23.188" viewBox="0 0 20 23.188">
  <g id="クリスマスベルアイコン1" transform="translate(-35.197)">
    <path id="パス_29" data-name="パス 29" d="M55.026,17.007a13.936,13.936,0,0,1-3.194-8.082,7.075,7.075,0,0,0-5.045-6.074,1.87,1.87,0,1,0-3.179,0,7.074,7.074,0,0,0-5.045,6.074,13.937,13.937,0,0,1-3.194,8.082c-1.156,1.311,3.686,3.315,9.828,3.315S56.182,18.317,55.026,17.007ZM45.527,2.2a.466.466,0,1,1,.136-.329A.462.462,0,0,1,45.527,2.2Z" transform="translate(0 0)" fill="#fff"/>
    <path id="パス_30" data-name="パス 30" d="M264.535,461.776a2.4,2.4,0,0,0,2.4-2.382,28.459,28.459,0,0,1-4.75.45A2.4,2.4,0,0,0,264.535,461.776Z" transform="translate(-216.705 -438.588)" fill="#fff"/>
  </g>
</svg>
