<svg xmlns="http://www.w3.org/2000/svg" width="32.403" height="48.401" viewBox="0 0 32.403 48.401">
  <g id="人物の無料素材" transform="translate(-84.617)">
    <path id="パス_13" data-name="パス 13" d="M135.9,25.081a12.54,12.54,0,1,0-12.539-12.54A12.54,12.54,0,0,0,135.9,25.081Z" transform="translate(-35.078)" fill="#313e52"/>
    <path id="パス_14" data-name="パス 14" d="M116.877,292.282c-.56-3.353-3.4-7.989-5.441-10.159a1.6,1.6,0,0,0-1.844-.135,16.673,16.673,0,0,1-17.549,0,1.6,1.6,0,0,0-1.844.135c-2.037,2.17-4.881,6.806-5.441,10.159-1.376,8.257,7.445,11.24,16.059,11.24S118.253,300.539,116.877,292.282Z" transform="translate(0 -255.121)" fill="#313e52"/>
  </g>
</svg>
