<svg xmlns="http://www.w3.org/2000/svg" width="36.46" height="48.401" viewBox="0 0 36.46 48.401">
  <g id="誕生日プレゼントのアイコン" transform="translate(-63.156 0)">
    <path id="パス_15" data-name="パス 15" d="M122.508,13.5a12.117,12.117,0,0,0,5.186-3.239,8.452,8.452,0,0,0,1.495-2.244,6.136,6.136,0,0,0,.555-2.49,5.118,5.118,0,0,0-.279-1.68,5.583,5.583,0,0,0-.9-1.64,5.734,5.734,0,0,0-2.1-1.646A6.163,6.163,0,0,0,123.883,0a6.33,6.33,0,0,0-1.98.318,6.591,6.591,0,0,0-2.7,1.721,8.272,8.272,0,0,0-1.853,3.2c-.55,1.689-2.2,5.522-2.242,5.616h-.157c-.046-.094-1.692-3.927-2.242-5.616a8.745,8.745,0,0,0-1.114-2.291A6.917,6.917,0,0,0,109.109.724,6.339,6.339,0,0,0,106.17,0a6.1,6.1,0,0,0-3.363,1,5.636,5.636,0,0,0-1.322,1.213,5.568,5.568,0,0,0-.9,1.64,5.1,5.1,0,0,0-.278,1.68,5.848,5.848,0,0,0,.253,1.68,7.784,7.784,0,0,0,1.49,2.7,11.466,11.466,0,0,0,4.2,3.093,14.881,14.881,0,0,0,6.043,1.236c1.28,0,2.681.011,2.73,0,.049.011,1.449,0,2.731,0A15.232,15.232,0,0,0,122.508,13.5Zm-1.883-9.06a4.266,4.266,0,0,1,1.535-1.388,3.733,3.733,0,0,1,1.723-.427,3.474,3.474,0,0,1,1.913.561,3.012,3.012,0,0,1,.71.649,2.969,2.969,0,0,1,.475.871,2.49,2.49,0,0,1,.134.82,3.216,3.216,0,0,1-.143.925,5.156,5.156,0,0,1-1,1.782,8.868,8.868,0,0,1-3.241,2.366,12.248,12.248,0,0,1-4.976,1.009q-.153,0-.3,0a27.473,27.473,0,0,0,2.386-5.556A6.149,6.149,0,0,1,120.624,4.443Zm-17.357,2.51a3.516,3.516,0,0,1-.329-1.423,2.464,2.464,0,0,1,.134-.819h0a2.935,2.935,0,0,1,.475-.871,3.088,3.088,0,0,1,1.138-.888,3.54,3.54,0,0,1,1.484-.323,3.673,3.673,0,0,1,1.157.187,3.956,3.956,0,0,1,1.626,1.043,5.636,5.636,0,0,1,1.253,2.194,27.46,27.46,0,0,0,2.386,5.556c-.1,0-.194,0-.3,0A12.612,12.612,0,0,1,108.364,11,9.516,9.516,0,0,1,104.3,8.491,5.79,5.79,0,0,1,103.267,6.953Z" transform="translate(-33.641 0)" fill="#313e52"/>
    <path id="パス_16" data-name="パス 16" d="M271.427,172.6v8.75H288.2V172.6Z" transform="translate(-188.582 -156.279)" fill="#313e52"/>
    <path id="パス_17" data-name="パス 17" d="M63.156,178.341v3H79.928V172.6H63.156Z" transform="translate(0 -156.279)" fill="#313e52"/>
    <rect id="長方形_49" data-name="長方形 49" width="16.772" height="20.419" transform="translate(82.845 27.983)" fill="#313e52"/>
    <rect id="長方形_50" data-name="長方形 50" width="16.772" height="20.419" transform="translate(63.156 27.983)" fill="#313e52"/>
  </g>
</svg>
