<svg id="男女マーク2" xmlns="http://www.w3.org/2000/svg" width="38.096" height="48.401" viewBox="0 0 38.096 48.401">
  <path id="パス_11" data-name="パス 11" d="M74.671,144.677a11.813,11.813,0,0,0-4.167-2.7,6.12,6.12,0,0,0-1.465,2.931,6.406,6.406,0,0,0-.108.885c.13.045.257.092.381.146a7.725,7.725,0,0,1,3.385,2.79,7.6,7.6,0,0,1,1.255,3.356,7.5,7.5,0,0,1,.058.942,7.66,7.66,0,0,1-.6,2.994,7.742,7.742,0,0,1-2.163,2.915,7.352,7.352,0,0,1-.624.47,7.711,7.711,0,0,1-7.292.71,7.733,7.733,0,0,1-3.387-2.79,7.677,7.677,0,0,1,1.719-10.413c-.02-.279-.029-.558-.029-.837a13.472,13.472,0,0,1,.653-4.155,11.814,11.814,0,0,0,2.448,22.812v3.682H59.257v3.172H64.73v5.319H67.9v-5.319h5.478v-3.172H67.9v-3.682a11.773,11.773,0,0,0,6.767-3.349,11.974,11.974,0,0,0,1.584-1.961,11.737,11.737,0,0,0,1.878-6.395,12.154,12.154,0,0,0-.111-1.63A11.785,11.785,0,0,0,74.671,144.677Z" transform="translate(-54.506 -128.507)" fill="#313e52"/>
  <path id="パス_12" data-name="パス 12" d="M165.761,0V3.172h4.84l-5,5A11.819,11.819,0,0,0,146.912,15c-.006.026-.009.052-.016.074-.019.082-.035.165-.05.244-.029.153-.055.305-.079.457-.016.092-.029.188-.039.279-.019.139-.035.282-.046.425-.007.082-.016.165-.02.247,0,.041-.006.083-.009.127-.007.083-.01.168-.013.25-.006.156-.01.314-.01.47,0,.12,0,.241.007.364s.013.241.019.365l.019.267c0,.044.007.089.01.136a11.825,11.825,0,0,0,7.574,9.918,6.193,6.193,0,0,0,1.1-1.726,6.054,6.054,0,0,0,.469-2.087,7.706,7.706,0,0,1-4.513-4.342,7.794,7.794,0,0,1-.555-3.26c.006-.1.013-.2.019-.3.007-.073.013-.146.026-.219,0-.028.006-.056.009-.085.007-.07.016-.143.029-.212.016-.1.032-.194.051-.288a7.5,7.5,0,0,1,.362-1.269c.029-.076.058-.149.092-.225s.066-.159.1-.238a2.2,2.2,0,0,1,.111-.235,2.186,2.186,0,0,1,.121-.231,7.563,7.563,0,0,1,.738-1.117c.058-.073.118-.146.177-.216.131-.149.264-.295.407-.438a7.09,7.09,0,0,1,.545-.495,7.522,7.522,0,0,1,1.995-1.2,7.734,7.734,0,0,1,4.367-.422,7.691,7.691,0,0,1,3.969,12.989,7.419,7.419,0,0,1-.777.679c.016.279.025.558.025.834a13.284,13.284,0,0,1-.656,4.155,11.811,11.811,0,0,0,5.367-18.263l5-5v4.843h3.172V0Z" transform="translate(-137.92)" fill="#313e52"/>
</svg>
