<svg xmlns="http://www.w3.org/2000/svg" width="48.74" height="48.401" viewBox="0 0 48.74 48.401">
  <g id="グッジョブの手の無料アイコン2" transform="translate(0 -1.781)">
    <path id="パス_18" data-name="パス 18" d="M48.74,22.26a5.058,5.058,0,0,0-5.054-5.054H31.966c-.662.006-1.269.1-1.711.1a2.023,2.023,0,0,1-.4-.033l-.061-.018-.015-.045a1.35,1.35,0,0,1-.027-.295c0-.086.013-.208.024-.327l2.883-7.128A5.584,5.584,0,1,0,22.309,5.272l0,.007L17.415,17.59h0c-.327.768-.59,1.487-.848,2.109a5.556,5.556,0,0,1-1.215,2.041,2.27,2.27,0,0,1-.808.473,4.189,4.189,0,0,1-1.37.195,5.481,5.481,0,0,0-1.037.1h-7.9A4.235,4.235,0,0,0,0,26.746v19.2a4.234,4.234,0,0,0,4.236,4.235H10.1a2.354,2.354,0,0,0,2.353-2.353v-1.95a8.58,8.58,0,0,0,1.313.635,16.667,16.667,0,0,0,5.908.878H37.879a5.051,5.051,0,0,0,5.054-5.05,4.939,4.939,0,0,0-.364-1.852,5.054,5.054,0,0,0,3.47-4.8,4.968,4.968,0,0,0-.68-2.5,4.089,4.089,0,0,0,1.263-1.844,6.912,6.912,0,0,0,.348-2.3,3.965,3.965,0,0,0-.283-1.429,4.97,4.97,0,0,0-.512-.964A5.053,5.053,0,0,0,48.74,22.26Zm-5.051,2.56h-.842a1.246,1.246,0,0,0,0,2.491,1.308,1.308,0,0,1,.628.153,1.92,1.92,0,0,1,.738.735,1.817,1.817,0,0,1,.268.848,3.853,3.853,0,0,1-.354,1.816,1.368,1.368,0,0,1-.372.437,1.509,1.509,0,0,1-.6.256,1.245,1.245,0,0,0-.541,2.178,2.531,2.531,0,0,1,.94,1.96,2.566,2.566,0,0,1-2.563,2.561h-.593a1.245,1.245,0,0,0-.824,2.178,2.53,2.53,0,0,1,.873,1.908,2.564,2.564,0,0,1-2.563,2.56H19.673a15.411,15.411,0,0,1-4.6-.568,6.042,6.042,0,0,1-2.111-1.113,5.177,5.177,0,0,1-.512-.51V24.982a2.918,2.918,0,0,1,.726-.083,6.137,6.137,0,0,0,2.8-.595,4.826,4.826,0,0,0,1.476-1.159,8.38,8.38,0,0,0,1.306-2.236c.333-.782.619-1.583.955-2.371l.015-.03L24.619,6.2a3.094,3.094,0,0,1,5.734,2.325l-2.951,7.3a1.223,1.223,0,0,0-.08.3,5.924,5.924,0,0,0-.057.791,3.36,3.36,0,0,0,.236,1.312,2.412,2.412,0,0,0,.546.815,2.542,2.542,0,0,0,1.145.631,4.118,4.118,0,0,0,1.064.123c.707,0,1.343-.1,1.711-.1h11.72a2.561,2.561,0,1,1,0,5.122Z" fill="#313e52"/>
  </g>
</svg>
