<svg xmlns="http://www.w3.org/2000/svg" width="39.096" height="29.54" viewBox="0 0 39.096 29.54">
  <g id="コメントのフリーアイコン6" transform="translate(0 -62.572)">
    <path id="パス_19" data-name="パス 19" d="M26.932,62.572H12.164a12.164,12.164,0,1,0,0,24.327h11.62c1.738,0,2.281.807,2.281,1.468a3.41,3.41,0,0,1-1.737,2.769c-.761.542-.162.976.434.976,7.764,0,14.334-8.471,14.334-17.377A12.163,12.163,0,0,0,26.932,62.572ZM10.313,77.045a2.31,2.31,0,1,1,2.308-2.31A2.309,2.309,0,0,1,10.313,77.045Zm9.235,0a2.31,2.31,0,1,1,2.31-2.31A2.311,2.311,0,0,1,19.548,77.045Zm9.235,0a2.31,2.31,0,1,1,2.31-2.31A2.309,2.309,0,0,1,28.783,77.045Z" fill="#313e52"/>
  </g>
</svg>
