<svg xmlns="http://www.w3.org/2000/svg" width="39.596" height="48.663" viewBox="0 0 39.596 48.663">
  <g id="履歴書アイコン4" transform="translate(-47.7)">
    <path id="パス_20" data-name="パス 20" d="M175.818,252.183a6.042,6.042,0,0,1-3.847,0,7.585,7.585,0,0,0-6.7,7.877h17.247A7.585,7.585,0,0,0,175.818,252.183Z" transform="translate(-106.396 -228.214)" fill="#313e52"/>
    <path id="パス_21" data-name="パス 21" d="M211.062,138.155a4.72,4.72,0,0,0,4.72-4.721V132.1a4.72,4.72,0,1,0-9.44,0v1.339A4.72,4.72,0,0,0,211.062,138.155Z" transform="translate(-143.564 -115.269)" fill="#313e52"/>
    <path id="パス_22" data-name="パス 22" d="M79.132,0H55.863A8.174,8.174,0,0,0,47.7,8.164V40.5a8.172,8.172,0,0,0,8.163,8.163h20.8l.886-.884,8.861-8.861.884-.885V8.164A8.174,8.174,0,0,0,79.132,0Zm5.142,36.781H79.7a4.285,4.285,0,0,0-4.284,4.284V45.64H55.863a5.14,5.14,0,0,1-5.14-5.14V8.164a5.141,5.141,0,0,1,5.14-5.142H79.132a5.142,5.142,0,0,1,5.142,5.142V36.781Z" transform="translate(0)" fill="#313e52"/>
  </g>
</svg>
